<svg width="13" height="13" viewBox="0 0 13 13" fill="none" xmlns="http://www.w3.org/2000/svg">
<path d="M11.8572 2H1.14234C0.966457 2 0.801799 2.0393 0.652832 2.10408L6.47437 7.39511L7.77917 6.25542C7.77917 6.25542 7.77927 6.2553 7.77929 6.25526C7.77932 6.25521 7.77942 6.25516 7.77942 6.25516L12.3469 2.10417C12.1979 2.03935 12.0331 2 11.8572 2Z" fill="#007756"/>
<path d="M12.8856 2.59375L8.5874 6.50006L12.8855 10.4064C12.9567 10.271 13 10.1214 13 9.96154V3.03849C13 2.87873 12.9568 2.7291 12.8856 2.59375Z" fill="#007756"/>
<path d="M0.114512 2.59363C0.0432402 2.72902 0 2.87867 0 3.03853V9.96157C0 10.1213 0.0431895 10.271 0.11441 10.4064L4.41261 6.50005L0.114512 2.59363Z" fill="#007756"/>
<path d="M8.04882 6.98955L6.74384 8.12938C6.66944 8.197 6.572 8.23081 6.47457 8.23081C6.37715 8.23081 6.27967 8.197 6.2053 8.12938L4.95111 6.9895L0.652832 10.8958C0.801824 10.9607 0.966584 11 1.14252 11H11.8574C12.0332 11 12.1979 10.9607 12.3469 10.8959L8.04882 6.98955Z" fill="#007756"/>
</svg>
