<svg width="13" height="13" viewBox="0 0 13 13" fill="none" xmlns="http://www.w3.org/2000/svg">
<g clip-path="url(#clip0_2_213)">
<path d="M12.7817 5.81158L6.949 0.496879C6.69298 0.263565 6.30692 0.26359 6.05101 0.496853L0.218309 5.81161C0.0132296 5.99848 -0.0545125 6.28641 0.0456788 6.54512C0.145895 6.80382 0.389899 6.97097 0.667342 6.97097H1.59892V12.2959C1.59892 12.507 1.77011 12.6782 1.98123 12.6782H5.17826C5.38938 12.6782 5.56056 12.5071 5.56056 12.2959V9.06277H7.43952V12.2959C7.43952 12.5071 7.6107 12.6782 7.82182 12.6782H11.0187C11.2298 12.6782 11.401 12.5071 11.401 12.2959V6.97097H12.3328C12.6102 6.97097 12.8542 6.8038 12.9544 6.54512C13.0545 6.28639 12.9867 5.99848 12.7817 5.81158Z" fill="white"/>
<path d="M11.3014 1.08496H8.73389L11.6837 3.76712V1.46724C11.6837 1.25612 11.5125 1.08496 11.3014 1.08496Z" fill="white"/>
</g>
<defs>
<clipPath id="clip0_2_213">
<rect width="13" height="13" fill="white"/>
</clipPath>
</defs>
</svg>
