<svg width="10" height="14" viewBox="0 0 10 14" fill="none" xmlns="http://www.w3.org/2000/svg">
<path d="M9.10377 2.1844C8.12969 0.780142 6.62683 0 4.98482 0C3.31498 0 1.82603 0.808511 0.879789 2.19858C-0.052541 3.58865 -0.261271 5.34752 0.337089 6.89362C0.420581 7.07801 0.504074 7.29078 0.629312 7.48936L4.3308 13.617C4.46995 13.8582 4.72043 14 4.99874 14C5.27704 14 5.51361 13.8582 5.66667 13.617L9.38208 7.44681C9.50732 7.21986 9.61864 7.02128 9.68822 6.82269C10.2587 5.29078 10.0361 3.5461 9.10377 2.1844ZM4.98482 7.51773C3.57937 7.51773 2.43831 6.34043 2.43831 4.92199C2.43831 3.50355 3.57937 2.31206 4.98482 2.31206C6.39027 2.31206 7.53133 3.48936 7.53133 4.9078C7.53133 6.32624 6.39027 7.51773 4.98482 7.51773Z" fill="#007756"/>
</svg>
