<svg width="13" height="13" viewBox="0 0 13 13" fill="none" xmlns="http://www.w3.org/2000/svg">
<g clip-path="url(#clip0_13_735)">
<path d="M6.4073 6.26214C7.26761 6.26214 8.01257 5.95358 8.62125 5.3448C9.22993 4.73613 9.53848 3.99137 9.53848 3.13097C9.53848 2.27086 9.22993 1.52601 8.62115 0.917134C8.01237 0.308554 7.26751 0 6.4073 0C5.5469 0 4.80214 0.308554 4.19346 0.917233C3.58478 1.52591 3.27612 2.27077 3.27612 3.13097C3.27612 3.99137 3.58478 4.73623 4.19356 5.3449C4.80234 5.95348 5.5472 6.26214 6.4073 6.26214Z" fill="#007756"/>
<path d="M11.8861 9.99638C11.8685 9.74307 11.833 9.46675 11.7808 9.17495C11.728 8.88098 11.66 8.60307 11.5787 8.34907C11.4947 8.08653 11.3805 7.82727 11.2392 7.57882C11.0926 7.32095 10.9204 7.0964 10.7272 6.91163C10.5252 6.71832 10.2778 6.5629 9.99181 6.44954C9.70676 6.33677 9.39086 6.27964 9.05295 6.27964C8.92024 6.27964 8.7919 6.33409 8.54404 6.49546C8.3915 6.59494 8.21307 6.70999 8.01392 6.83724C7.84362 6.94574 7.61292 7.04741 7.32797 7.13945C7.04996 7.2294 6.76769 7.27503 6.48909 7.27503C6.21049 7.27503 5.92831 7.2294 5.65001 7.13945C5.36536 7.04751 5.13466 6.94584 4.96456 6.83734C4.76729 6.71128 4.58876 6.59623 4.43394 6.49536C4.18638 6.33399 4.05794 6.27954 3.92523 6.27954C3.58722 6.27954 3.27142 6.33677 2.98647 6.44964C2.70063 6.5628 2.45317 6.71822 2.25094 6.91173C2.05783 7.0966 1.88555 7.32105 1.73916 7.57882C1.59802 7.82727 1.48376 8.08643 1.39966 8.34917C1.31843 8.60317 1.25049 8.88098 1.19772 9.17495C1.14545 9.46635 1.10995 9.74277 1.09239 9.99667C1.07513 10.2454 1.06641 10.5036 1.06641 10.7643C1.06641 11.4429 1.28213 11.9923 1.70752 12.3975C2.12766 12.7973 2.68357 13.0001 3.3596 13.0001H9.61918C10.2952 13.0001 10.8509 12.7974 11.2712 12.3975C11.6966 11.9926 11.9124 11.4431 11.9124 10.7642C11.9123 10.5023 11.9034 10.2439 11.8861 9.99638Z" fill="#007756"/>
</g>
<defs>
<clipPath id="clip0_13_735">
<rect width="13" height="13" fill="white"/>
</clipPath>
</defs>
</svg>
