<svg width="219" height="113" viewBox="0 0 219 113" fill="none" xmlns="http://www.w3.org/2000/svg">
<path d="M46.9091 93.9549C42.8081 93.9549 38.7071 93.9549 34.6061 93.9549C33.0568 93.9549 33.0112 93.9093 33.0112 92.4512C33.0112 84.158 33.0112 75.9104 33.0112 67.6172C33.0112 66.0679 33.0568 66.0223 34.5149 66.0223C42.8081 66.0223 51.0557 66.0223 59.3489 66.0223C60.8982 66.0223 60.9438 66.0679 60.9438 67.526C60.9438 75.8192 60.9438 84.0668 60.9438 92.36C60.9438 93.9093 60.8982 93.9549 59.2122 93.9549C55.1112 93.9549 51.0102 93.9549 46.9091 93.9549Z" fill="#2C5A62"/>
<path d="M126.966 14.0573C126.966 10.0539 126.966 6.05053 126.966 2.00168C126.966 0.0909856 127.012 0 128.807 0C136.86 0 144.867 0 152.92 0C154.76 0 154.898 0.0909854 154.898 1.91069C154.898 9.91741 154.898 17.9696 154.898 25.9763C154.898 27.9325 154.852 27.9325 152.782 27.9325C144.821 27.9325 136.86 27.9325 128.899 27.887C127.012 27.887 127.012 27.8415 127.012 26.0218C126.966 22.064 127.012 18.0606 126.966 14.0573Z" fill="#2C5A62"/>
<path d="M27.912 47.0458C27.912 51.0557 27.912 55.0656 27.912 59.0755C27.912 60.8982 27.8659 60.9438 26.205 60.9438C18.0851 60.9438 9.91915 60.9438 1.79929 60.9438C0.0922712 60.9438 0.0461356 60.8982 0 59.1211C0 51.0102 0 42.8993 0 34.7883C0 33.0568 0.0461355 33.0112 1.84542 33.0112C9.91915 33.0112 17.9467 33.0112 26.0205 33.0112C27.8659 33.0112 27.912 33.0568 27.912 34.9706C27.9582 38.9805 27.912 42.9904 27.912 47.0458Z" fill="#2C5A62"/>
<path d="M66.0225 47.0003C66.0225 43.036 66.0225 39.1172 66.0225 35.1529C66.0225 33.1024 66.0685 33.0568 68.0045 33.0568C75.9786 33.0568 83.9528 33.0112 91.9269 33.0112C93.9089 33.0112 93.955 33.0568 93.955 35.0617C93.955 43.036 93.955 51.0102 93.9089 58.9388C93.9089 60.8982 93.8628 60.9438 91.8347 60.9438C83.9528 60.9438 76.0247 60.9438 68.1427 60.9438C66.0225 60.9438 66.0225 60.8982 66.0225 58.7565C66.0225 54.8834 66.0225 50.919 66.0225 47.0003Z" fill="#2C5A62"/>
<path d="M105.982 66.1548C108.495 66.1548 110.964 66.1105 113.477 66.1548C115.901 66.1992 118.326 66.5541 120.574 67.5302C126.526 70.059 128.422 74.7617 127.496 80.6179C126.658 85.9418 123.219 89.1361 117.665 89.8015C114.667 90.1565 111.669 90.1121 108.671 90.2452C106.952 90.3339 106.731 90.4226 106.731 92.1085C106.731 96.7669 106.731 101.425 106.908 106.084C106.996 108.612 107.613 109.145 110.17 109.722C110.964 109.899 111.757 109.943 112.551 110.165C112.815 110.254 113.036 110.653 113.08 110.964C113.124 111.141 112.771 111.452 112.551 111.541C112.154 111.674 111.669 111.629 111.228 111.629C106.82 111.629 102.411 111.629 98.0025 111.629C97.5616 111.629 97.1208 111.629 96.6799 111.541C96.4595 111.496 96.1068 111.141 96.1509 110.964C96.195 110.653 96.4154 110.343 96.6799 110.165C96.9004 109.988 97.253 110.032 97.5176 109.988C99.6778 109.633 100.648 108.257 100.868 106.217C100.956 105.462 100.956 104.753 100.956 103.998C100.956 93.9275 100.956 83.901 100.956 73.83C100.956 73.2533 100.956 72.6322 100.912 72.0554C100.648 69.3491 99.9864 68.6393 97.3412 68.1069C97.209 68.0626 96.9885 68.1513 96.9004 68.0626C96.5918 67.752 96.1509 67.3971 96.0627 66.9978C95.9746 66.3323 96.5477 66.1992 97.1208 66.1992C99.0165 66.1992 100.956 66.1992 102.852 66.1992C103.91 66.1549 104.924 66.1548 105.982 66.1548ZM106.687 79.7306C106.687 82.1707 106.643 84.6108 106.731 87.0509C106.776 88.5149 106.996 88.7811 108.451 88.7368C110.346 88.6924 112.286 88.648 114.094 88.2487C117.356 87.5389 119.649 85.4537 120.354 82.1263C120.795 79.9968 120.971 77.7342 120.751 75.5603C120.178 70.1477 116.563 67.3527 111.405 67.9738C107.966 68.4175 106.82 69.571 106.731 73.1202C106.599 75.3385 106.687 77.5567 106.687 79.7306Z" fill="#2C5A62"/>
<path d="M153.418 102.756C153.418 100.538 153.418 98.3197 153.418 96.1015C153.418 95.5691 153.418 95.0367 153.55 94.5487C153.594 94.3269 153.947 94.0607 154.167 94.0607C154.388 94.0163 154.784 94.1938 154.873 94.3712C155.137 94.9036 155.225 95.4804 155.402 96.0571C156.416 98.9852 157.209 102.002 158.488 104.797C159.854 107.77 162.014 110.032 165.497 110.609C168.01 111.008 170.17 110.431 171.934 108.612C174.755 105.773 176.298 100.139 172.066 95.8797C170.92 94.7262 169.641 93.7501 168.231 92.9515C165.409 91.2657 162.499 89.6685 159.59 88.1157C151.213 83.5905 151.61 71.5675 158.708 67.0422C162.411 64.6909 166.247 64.4691 170.126 66.776C170.435 66.9535 170.743 67.1753 171.052 67.3972C173.124 68.7725 173.168 68.8168 174.799 66.8648C175.284 66.2437 175.857 65.9775 176.475 66.3324C176.783 66.5099 176.915 67.1753 176.915 67.619C176.959 72.1886 176.959 76.7582 176.915 81.3722C176.915 81.9046 177.092 82.6588 176.21 82.7475C175.328 82.7919 175.196 82.1264 175.02 81.4609C174.314 78.7547 173.653 76.0484 172.727 73.4308C172.198 72.0111 171.228 70.7245 170.258 69.5711C168.142 67.131 165.321 66.8204 162.367 67.4859C160.868 67.7964 159.678 68.7281 159.017 70.1478C157.518 73.209 157.297 77.2906 160.427 80.3518C161.353 81.2835 162.455 82.0377 163.602 82.7032C166.511 84.3891 169.509 85.9862 172.463 87.5833C176.959 90.0234 179.12 93.7945 179.164 98.9409C179.208 104.575 176.651 108.746 171.978 111.541C168.407 113.67 164.704 113.36 161.133 111.319C160.295 110.831 159.546 110.254 158.708 109.766C157.297 108.879 157.077 108.923 155.975 110.254C155.754 110.52 155.578 110.919 155.269 111.097C154.873 111.363 154.344 111.674 153.947 111.585C153.638 111.496 153.33 110.831 153.33 110.387C153.418 107.77 153.418 105.285 153.418 102.756Z" fill="#2C5A62"/>
<path d="M210.861 111.585C208.878 111.585 206.894 111.585 204.91 111.585C204.469 111.585 203.984 111.629 203.587 111.54C203.323 111.452 202.97 111.141 202.926 110.875C202.926 110.653 203.235 110.21 203.499 110.165C204.205 109.943 204.954 109.943 205.615 109.722C207.291 109.145 207.864 108.169 207.379 106.527C206.497 103.51 205.483 100.494 204.513 97.4767C204.205 96.5894 203.587 96.1901 202.706 96.2345C199.179 96.2345 195.652 96.2345 192.125 96.2345C191.111 96.2345 190.494 96.6338 190.229 97.6542C189.612 99.8281 188.863 102.002 188.201 104.176C188.069 104.664 188.025 105.196 187.981 105.684C187.805 108.612 188.378 109.367 191.199 109.943C191.772 110.076 192.39 110.032 192.919 110.165C193.183 110.254 193.404 110.564 193.668 110.786C193.404 111.052 193.183 111.407 192.875 111.585C192.654 111.718 192.301 111.629 191.993 111.629C188.554 111.629 185.071 111.629 181.633 111.629C181.28 111.629 180.883 111.674 180.531 111.54C180.31 111.452 180.046 111.186 180.002 110.964C179.957 110.742 180.134 110.431 180.266 110.21C180.31 110.121 180.531 110.121 180.663 110.076C183.749 109.411 184.939 107.237 185.777 104.398C189.48 92.286 193.315 80.2186 197.107 68.1513C197.195 67.9294 197.239 67.7076 197.327 67.5302C197.724 66.6872 197.459 65.3119 199.002 65.3119C200.501 65.3563 200.369 66.6872 200.678 67.5745C204.249 78.0891 207.82 88.648 211.346 99.1626C212.184 101.691 213.11 104.176 213.903 106.705C214.521 108.568 215.579 109.81 217.562 110.032C217.871 110.076 218.18 110.076 218.4 110.21C218.576 110.343 218.753 110.698 218.753 110.919C218.753 111.141 218.488 111.496 218.268 111.54C217.871 111.674 217.386 111.629 216.945 111.629C214.961 111.585 212.933 111.585 210.861 111.585ZM197.239 75.9596C196.886 76.5807 196.622 76.8469 196.49 77.1574C194.902 82.3482 193.315 87.5389 191.772 92.774C191.42 94.0162 191.64 94.3268 193.051 94.3711C195.828 94.4155 198.606 94.4155 201.383 94.3711C203.146 94.3268 203.279 94.1049 202.75 92.3747C201.163 87.3171 199.531 82.3038 197.9 77.2461C197.768 76.9356 197.548 76.625 197.239 75.9596Z" fill="#2C5A62"/>
<path d="M142.132 93.7057C142.132 97.5212 142.132 101.381 142.132 105.196C142.132 108.479 142.441 108.923 145.483 110.032C145.615 110.077 145.835 110.032 145.879 110.121C146.1 110.387 146.32 110.653 146.364 110.964C146.364 111.141 146.056 111.452 145.835 111.496C145.483 111.585 145.13 111.585 144.733 111.585C141.294 111.585 137.856 111.585 134.373 111.585C134.064 111.585 133.756 111.629 133.491 111.541C133.183 111.407 132.83 111.141 132.786 110.919C132.742 110.698 133.05 110.165 133.271 110.121C136.709 109.544 137.106 107.104 137.062 104.176C136.974 98.3641 137.018 92.5079 137.018 86.696C137.018 86.1193 137.062 85.4982 136.974 84.9214C136.798 82.8362 136.313 82.3482 134.329 81.6384C133.756 81.4166 132.61 81.6827 132.698 80.5736C132.83 79.4645 133.844 79.9081 134.461 79.8638C136.445 79.6863 138.429 79.5532 140.369 79.5089C141.912 79.4645 142 79.5089 142 81.0616C142.176 85.2763 142.132 89.491 142.132 93.7057Z" fill="#2C5A62"/>
<path d="M135.828 69.3047C136.004 68.6836 136.136 67.885 136.401 67.1308C136.798 66.0217 137.723 65.6224 138.825 65.6224C140.016 65.578 141.074 65.7998 141.603 66.9977C142.132 68.2399 142.396 69.5265 142.044 70.8575C141.559 72.7208 140.721 73.4307 139.002 73.4307C137.282 73.4307 136.489 72.7208 136.004 70.8131C135.916 70.3695 135.872 69.9258 135.828 69.3047Z" fill="#2C5A62"/>
</svg>
