<svg width="64" height="88" viewBox="0 0 64 88" fill="none" xmlns="http://www.w3.org/2000/svg">
<path d="M32.9759 0.0183415C14.8694 -0.583921 0 13.7235 0 31.4585C0 51.5857 19.5698 66.1926 30.5386 87.1994C31.0955 88.2659 32.6511 88.2673 33.2099 87.2009C43.1328 68.2991 60.0924 55.6244 63.2354 37.4146C66.4896 18.5711 52.3318 0.662411 32.9759 0.0183415Z" fill="#007756"/>
<path d="M13.7707 23.2011C14.69 23.2011 15.5931 23.1848 16.5124 23.2011C17.3994 23.2173 18.2864 23.3471 19.1089 23.7042C21.2862 24.6293 21.9797 26.3497 21.641 28.492C21.3346 30.4396 20.0766 31.6082 18.0445 31.8516C16.9478 31.9815 15.8512 31.9652 14.7545 32.0139C14.1255 32.0464 14.0449 32.0788 14.0449 32.6956C14.0449 34.3997 14.0449 36.1039 14.1094 37.808C14.1416 38.7331 14.3674 38.9279 15.3028 39.1389C15.5931 39.2038 15.8834 39.22 16.1737 39.3012C16.2705 39.3336 16.3511 39.4797 16.3672 39.5933C16.3834 39.6582 16.2544 39.7718 16.1737 39.8043C16.0286 39.853 15.8512 39.8368 15.6899 39.8368C14.0771 39.8368 12.4644 39.8368 10.8516 39.8368C10.6903 39.8368 10.529 39.8368 10.3678 39.8043C10.2871 39.7881 10.1581 39.6582 10.1742 39.5933C10.1904 39.4797 10.271 39.3661 10.3678 39.3012C10.4484 39.2362 10.5774 39.2525 10.6742 39.2362C11.4644 39.1064 11.8192 38.6033 11.8999 37.8567C11.9321 37.5808 11.9321 37.3211 11.9321 37.0452C11.9321 33.361 11.9321 29.693 11.9321 26.0088C11.9321 25.7979 11.9321 25.5706 11.916 25.3596C11.8192 24.3696 11.5773 24.1099 10.6097 23.9152C10.5613 23.899 10.4807 23.9314 10.4484 23.8989C10.3355 23.7853 10.1742 23.6555 10.142 23.5094C10.1097 23.266 10.3194 23.2173 10.529 23.2173C11.2225 23.2173 11.9321 23.2173 12.6256 23.2173C13.0127 23.2011 13.3836 23.2011 13.7707 23.2011ZM14.0287 28.1674C14.0287 29.0601 14.0126 29.9527 14.0449 30.8454C14.061 31.381 14.1416 31.4783 14.6738 31.4621C15.3673 31.4459 16.0769 31.4296 16.7382 31.2836C17.9316 31.0239 18.7703 30.2611 19.0283 29.0438C19.1896 28.2648 19.2541 27.4371 19.1735 26.6418C18.9638 24.6618 17.6413 23.6393 15.7544 23.8665C14.4964 24.0288 14.0771 24.4508 14.0449 25.7492C13.9965 26.5607 14.0287 27.3722 14.0287 28.1674Z" fill="white"/>
<path d="M31.1241 36.5908C31.1241 35.7793 31.1241 34.9678 31.1241 34.1563C31.1241 33.9615 31.1241 33.7668 31.1724 33.5882C31.1886 33.5071 31.3176 33.4097 31.3982 33.4097C31.4789 33.3935 31.624 33.4584 31.6563 33.5233C31.753 33.7181 31.7853 33.9291 31.8498 34.1401C32.2207 35.2112 32.511 36.3149 32.9787 37.3374C33.4787 38.4248 34.2689 39.2525 35.543 39.4635C36.4623 39.6096 37.2526 39.3986 37.8977 38.7331C38.9298 37.6944 39.4943 35.6332 37.946 34.0751C37.5267 33.6532 37.059 33.2961 36.5429 33.004C35.5108 32.3872 34.4463 31.8029 33.3819 31.2349C30.3177 29.5794 30.4628 25.1811 33.0594 23.5257C34.4141 22.6655 35.8172 22.5843 37.2364 23.4283C37.3493 23.4932 37.4622 23.5744 37.5751 23.6555C38.3331 24.1586 38.3492 24.1749 38.946 23.4608C39.1234 23.2335 39.333 23.1362 39.5588 23.266C39.6717 23.3309 39.7201 23.5744 39.7201 23.7367C39.7362 25.4084 39.7362 27.08 39.7201 28.768C39.7201 28.9627 39.7846 29.2386 39.462 29.2711C39.1395 29.2873 39.0911 29.0439 39.0266 28.8004C38.7685 27.8104 38.5266 26.8204 38.188 25.8628C37.9944 25.3434 37.6396 24.8728 37.2848 24.4508C36.5107 23.5581 35.4785 23.4445 34.398 23.688C33.8496 23.8016 33.4142 24.1424 33.1723 24.6618C32.6239 25.7816 32.5433 27.2748 33.6883 28.3947C34.027 28.7355 34.4302 29.0114 34.8495 29.2548C35.914 29.8716 37.0106 30.4559 38.0912 31.0401C39.7362 31.9328 40.5265 33.3123 40.5426 35.195C40.5587 37.2562 39.6233 38.7818 37.9138 39.8043C36.6074 40.5834 35.2527 40.4697 33.9464 39.7232C33.64 39.5446 33.3658 39.3336 33.0594 39.1551C32.5433 38.8305 32.4626 38.8468 32.0595 39.3336C31.9788 39.431 31.9143 39.5771 31.8014 39.642C31.6563 39.7394 31.4627 39.853 31.3176 39.8205C31.2047 39.7881 31.0918 39.5446 31.0918 39.3823C31.1241 38.4248 31.1241 37.5159 31.1241 36.5908Z" fill="white"/>
<path d="M52.1386 39.8205C51.4128 39.8205 50.6871 39.8205 49.9613 39.8205C49.8 39.8205 49.6226 39.8368 49.4775 39.8043C49.3807 39.7718 49.2517 39.6582 49.2356 39.5609C49.2356 39.4797 49.3485 39.3174 49.4452 39.3012C49.7033 39.22 49.9774 39.22 50.2194 39.1389C50.8322 38.9279 51.0419 38.5708 50.8645 37.9703C50.5419 36.8667 50.171 35.7631 49.8162 34.6594C49.7033 34.3348 49.4775 34.1887 49.1549 34.205C47.8647 34.205 46.5745 34.205 45.2843 34.205C44.9134 34.205 44.6876 34.351 44.5908 34.7243C44.365 35.5196 44.0909 36.3149 43.8489 37.1101C43.8006 37.2887 43.7844 37.4834 43.7683 37.662C43.7038 38.7331 43.9135 39.009 44.9456 39.22C45.1553 39.2687 45.3811 39.2525 45.5746 39.3012C45.6714 39.3336 45.752 39.4472 45.8488 39.5284C45.752 39.6258 45.6714 39.7556 45.5585 39.8205C45.4778 39.8692 45.3488 39.8368 45.2359 39.8368C43.978 39.8368 42.7039 39.8368 41.4459 39.8368C41.3169 39.8368 41.1718 39.853 41.0427 39.8043C40.9621 39.7718 40.8653 39.6745 40.8492 39.5933C40.8331 39.5122 40.8976 39.3986 40.946 39.3174C40.9621 39.2849 41.0427 39.2849 41.0911 39.2687C42.2201 39.0253 42.6555 38.23 42.9619 37.1913C44.3166 32.7605 45.7198 28.346 47.1067 23.9314C47.139 23.8503 47.1551 23.7691 47.1874 23.7042C47.3325 23.3958 47.2358 22.8927 47.8002 22.8927C48.3486 22.9089 48.3002 23.3958 48.4131 23.7204C49.7194 27.5669 51.0257 31.4297 52.316 35.2762C52.6224 36.2013 52.9611 37.1101 53.2514 38.0352C53.4771 38.7169 53.8642 39.1713 54.59 39.2525C54.7028 39.2687 54.8157 39.2687 54.8964 39.3174C54.9609 39.3661 55.0254 39.4959 55.0254 39.5771C55.0254 39.6582 54.9286 39.7881 54.848 39.8043C54.7028 39.853 54.5254 39.8368 54.3642 39.8368C53.6384 39.8205 52.8966 39.8205 52.1386 39.8205ZM47.1551 26.7879C47.0261 27.0151 46.9293 27.1125 46.8809 27.2261C46.3004 29.125 45.7198 31.0239 45.1553 32.939C45.0263 33.3935 45.1069 33.5071 45.623 33.5233C46.639 33.5395 47.6551 33.5395 48.6711 33.5233C49.3162 33.5071 49.3646 33.4259 49.1711 32.793C48.5905 30.9428 47.9938 29.1088 47.397 27.2586C47.3486 27.1449 47.268 27.0313 47.1551 26.7879Z" fill="white"/>
<path d="M26.9953 33.2799C26.9953 34.6757 26.9953 36.0877 26.9953 37.4835C26.9953 38.6845 27.1082 38.8468 28.221 39.2525C28.2694 39.2688 28.35 39.2525 28.3662 39.285C28.4468 39.3824 28.5274 39.4797 28.5436 39.5934C28.5436 39.6583 28.4307 39.7719 28.35 39.7881C28.221 39.8206 28.092 39.8206 27.9468 39.8206C26.6889 39.8206 25.4309 39.8206 24.1568 39.8206C24.044 39.8206 23.9311 39.8368 23.8343 39.8043C23.7214 39.7557 23.5924 39.6583 23.5763 39.5771C23.5601 39.496 23.673 39.3012 23.7537 39.285C25.0116 39.074 25.1568 38.1813 25.1406 37.1102C25.1084 34.984 25.1245 32.8417 25.1245 30.7156C25.1245 30.5046 25.1406 30.2774 25.1084 30.0664C25.0439 29.3036 24.8665 29.125 24.1407 28.8654C23.9311 28.7842 23.5117 28.8816 23.544 28.4758C23.5924 28.0701 23.9633 28.2324 24.1891 28.2162C24.9148 28.1512 25.6406 28.1025 26.3502 28.0863C26.9147 28.0701 26.9469 28.0863 26.9469 28.6544C27.0114 30.1962 26.9953 31.7381 26.9953 33.2799Z" fill="white"/>
<path d="M24.6892 24.3534C24.7537 24.1262 24.8021 23.834 24.8989 23.5581C25.044 23.1524 25.3827 23.0063 25.7859 23.0063C26.2213 22.9901 26.6084 23.0712 26.8019 23.5094C26.9955 23.9639 27.0922 24.4345 26.9632 24.9214C26.7858 25.6031 26.4794 25.8628 25.8504 25.8628C25.2214 25.8628 24.9311 25.6031 24.7537 24.9052C24.7215 24.7429 24.7053 24.5806 24.6892 24.3534Z" fill="white"/>
<g opacity="0.2">
<path d="M37.127 69.3035C35.6347 69.3035 34.1424 69.3035 32.6502 69.3035C32.0864 69.3035 32.0698 69.2869 32.0698 68.7564C32.0698 65.7387 32.0698 62.7376 32.0698 59.7199C32.0698 59.1561 32.0864 59.1395 32.617 59.1395C35.6347 59.1395 38.6358 59.1395 41.6535 59.1395C42.2172 59.1395 42.2338 59.1561 42.2338 59.6867C42.2338 62.7044 42.2338 65.7055 42.2338 68.7232C42.2338 69.2869 42.2172 69.3035 41.6038 69.3035C40.1115 69.3035 38.6192 69.3035 37.127 69.3035Z" fill="white"/>
<path d="M20 13.1151C20 11.6584 20 10.2016 20 8.72837C20 8.03311 20.0167 8 20.6698 8C23.6001 8 26.5137 8 29.444 8C30.1138 8 30.164 8.03311 30.164 8.69526C30.164 11.6087 30.164 14.5387 30.164 17.4522C30.164 18.164 30.1473 18.164 29.3938 18.164C26.4969 18.164 23.6001 18.164 20.7033 18.1474C20.0167 18.1474 20.0167 18.1309 20.0167 17.4687C20 16.0286 20.0167 14.5718 20 13.1151Z" fill="white"/>
<path d="M30.1565 52.1767C30.1565 53.6358 30.1565 55.0949 30.1565 56.554C30.1565 57.2172 30.1398 57.2338 29.5354 57.2338C26.5808 57.2338 23.6094 57.2338 20.6547 57.2338C20.0336 57.2338 20.0168 57.2172 20 56.5706C20 53.6192 20 50.6678 20 47.7165C20 47.0864 20.0168 47.0698 20.6715 47.0698C23.6094 47.0698 26.5304 47.0698 29.4682 47.0698C30.1398 47.0698 30.1565 47.0864 30.1565 47.7828C30.1733 49.2419 30.1565 50.701 30.1565 52.1767Z" fill="white"/>
<path d="M44.1396 52.1601C44.1396 50.7176 44.1396 49.2916 44.1396 47.8491C44.1396 47.103 44.1564 47.0864 44.8609 47.0864C47.7625 47.0864 50.6641 47.0698 53.5657 47.0698C54.2869 47.0698 54.3037 47.0864 54.3037 47.816C54.3037 50.7176 54.3037 53.6192 54.2869 56.5043C54.2869 57.2172 54.2701 57.2338 53.5321 57.2338C50.6641 57.2338 47.7792 57.2338 44.9112 57.2338C44.1396 57.2338 44.1396 57.2172 44.1396 56.438C44.1396 55.0286 44.1396 53.5861 44.1396 52.1601Z" fill="white"/>
</g>
</svg>
